<?xml version="1.0" encoding="UTF-8" standalone="no"?>
<!-- Generator: Adobe Illustrator 26.0.2, SVG Export Plug-In . SVG Version: 6.00 Build 0)  -->

<svg
   version="1.1"
   x="0px"
   y="0px"
   viewBox="0 0 982.67715 294.80314"
   xml:space="preserve"
   id="svg2217"
   sodipodi:docname="foam_data.svg"
   width="260mm"
   height="78mm"
   inkscape:version="1.2.1 (9c6d41e, 2022-07-14)"
   xmlns:inkscape="http://www.inkscape.org/namespaces/inkscape"
   xmlns:sodipodi="http://sodipodi.sourceforge.net/DTD/sodipodi-0.dtd"
   xmlns="http://www.w3.org/2000/svg"
   xmlns:svg="http://www.w3.org/2000/svg"><defs
   id="defs2221" /><sodipodi:namedview
   id="namedview2219"
   pagecolor="#ffffff"
   bordercolor="#666666"
   borderopacity="1.0"
   inkscape:pageshadow="2"
   inkscape:pageopacity="0.0"
   inkscape:pagecheckerboard="0"
   showgrid="false"
   units="mm"
   width="500mm"
   inkscape:zoom="1.4142136"
   inkscape:cx="463.86204"
   inkscape:cy="106.06601"
   inkscape:window-width="2193"
   inkscape:window-height="1310"
   inkscape:window-x="1232"
   inkscape:window-y="25"
   inkscape:window-maximized="0"
   inkscape:current-layer="layer1"
   inkscape:document-units="mm"
   inkscape:showpageshadow="2"
   inkscape:deskcolor="#d1d1d1" />
<style
   type="text/css"
   id="style2">
	.st0{fill:none;stroke:#0000FF;stroke-width:1.000000e-03;stroke-miterlimit:10;}
	.st1{fill:none;stroke:#FF0000;stroke-width:3.000000e-03;stroke-linecap:round;stroke-linejoin:round;stroke-miterlimit:10;}
	.st2{fill:none;stroke:#FF0000;stroke-width:3.000000e-03;stroke-miterlimit:11.339;}
	.st3{display:none;}
	.st4{display:inline;}
	.st5{fill:#FF0000;}
	.st6{fill:#0000FF;}
	.st7{fill:#336699;}
	.st8{fill:#00FFFF;}
	.st9{fill:#00FF00;}
	.st10{fill:none;stroke:#000000;stroke-miterlimit:10;}
</style>
<g
   inkscape:groupmode="layer"
   id="layer3"
   inkscape:label="CUT2"
   style="display:inline"
   transform="translate(17.999999,88.999995)" />







<g
   inkscape:groupmode="layer"
   id="layer1"
   inkscape:label="CUT1"
   style="display:inline"><g
     id="g2796"
     transform="rotate(-90,122.41002,188.98683)"><path
       id="path4901-7-33"
       style="display:inline;fill:none;fill-opacity:0;stroke:#ff0000;stroke-width:0.377953;stroke-linecap:round;stroke-linejoin:round;stroke-dasharray:none;stroke-opacity:1"
       class="UnoptimicedTransforms"
       d="m 856.02536,13.363281 c -27.86583,-4e-6 -62.39086,-1e-6 -100.53515,0 v 1.835937 c 0,0.104369 -0.005,0.206949 -0.0156,0.308594 -0.0103,0.101645 -0.0267,0.202366 -0.0469,0.300781 -0.0201,0.09841 -0.0448,0.194384 -0.0742,0.289063 -0.0294,0.09468 -0.0633,0.186909 -0.10156,0.277343 -0.0383,0.09044 -0.0804,0.179941 -0.12695,0.265625 -0.0466,0.08569 -0.098,0.167619 -0.15235,0.248047 -0.0543,0.08043 -0.11221,0.15971 -0.17383,0.234375 -0.0616,0.07467 -0.12691,0.146448 -0.19531,0.214844 -0.0684,0.0684 -0.14018,0.13174 -0.21484,0.193359 -0.0747,0.06162 -0.152,0.121445 -0.23242,0.175782 -0.0804,0.05434 -0.16432,0.103843 -0.25,0.15039 -0.0857,0.04655 -0.17324,0.0887 -0.26368,0.126953 -0.0904,0.03825 -0.18266,0.07212 -0.27734,0.101563 -0.0947,0.02945 -0.19065,0.05408 -0.28906,0.07422 -0.0984,0.02014 -0.19914,0.03655 -0.30078,0.04687 -0.10165,0.01032 -0.20423,0.01562 -0.3086,0.01563 H 716.9375 c -0.10437,-1e-6 -0.20695,-0.0053 -0.3086,-0.01563 -0.10164,-0.01032 -0.20236,-0.02674 -0.30078,-0.04687 -0.0984,-0.02014 -0.19438,-0.04477 -0.28906,-0.07422 -0.0947,-0.02945 -0.18691,-0.06331 -0.27734,-0.101563 -0.0904,-0.03825 -0.17799,-0.08041 -0.26368,-0.126953 -0.0857,-0.04655 -0.16957,-0.09605 -0.25,-0.15039 -0.0804,-0.05434 -0.15775,-0.114162 -0.23242,-0.175782 -0.0747,-0.06162 -0.14645,-0.124963 -0.21484,-0.193359 -0.0684,-0.0684 -0.13369,-0.140178 -0.19531,-0.214844 -0.0616,-0.07466 -0.1195,-0.153946 -0.17383,-0.234375 -0.0543,-0.08043 -0.1058,-0.162361 -0.15235,-0.248047 -0.0465,-0.08568 -0.0887,-0.175189 -0.12695,-0.265625 -0.0383,-0.09043 -0.0721,-0.182665 -0.10156,-0.277343 -0.0294,-0.09468 -0.0541,-0.190648 -0.0742,-0.289063 -0.0201,-0.09841 -0.0366,-0.199136 -0.0469,-0.300781 -0.0103,-0.101645 -0.0156,-0.204225 -0.0156,-0.308594 v -1.835937 c -155.40109,0 -343.91665,1.5e-5 -430.86522,0 v 1.835937 c 0,0.104369 -0.005,0.206949 -0.0156,0.308594 -0.0103,0.101645 -0.0267,0.202366 -0.0469,0.300781 -0.0201,0.09841 -0.0448,0.194384 -0.0742,0.289063 -0.0294,0.09468 -0.0633,0.186914 -0.10156,0.277343 -0.0383,0.09044 -0.0804,0.179946 -0.12696,0.265625 -0.0465,0.08569 -0.098,0.167619 -0.15234,0.248047 -0.0543,0.08043 -0.11221,0.15971 -0.17383,0.234375 -0.0616,0.07467 -0.12691,0.146448 -0.19531,0.214844 -0.0684,0.0684 -0.13822,0.13174 -0.21289,0.193359 -0.0747,0.06162 -0.15395,0.121445 -0.23438,0.175782 -0.0804,0.05434 -0.16236,0.103843 -0.24804,0.15039 -0.0857,0.04655 -0.17519,0.0887 -0.26563,0.126953 -0.0904,0.03825 -0.18266,0.07212 -0.27734,0.101563 -0.0947,0.02945 -0.19065,0.05408 -0.28906,0.07422 -0.0984,0.02014 -0.19914,0.03655 -0.30078,0.04687 -0.10165,0.01032 -0.20423,0.01562 -0.3086,0.01563 H 244.4981 c -0.10437,-1e-6 -0.2089,-0.0053 -0.31055,-0.01563 -0.10164,-0.01032 -0.20041,-0.02674 -0.29883,-0.04687 -0.0984,-0.02014 -0.19633,-0.04477 -0.29101,-0.07422 -0.0947,-0.02945 -0.18691,-0.06331 -0.27735,-0.101563 -0.0904,-0.03825 -0.17798,-0.08041 -0.26367,-0.126953 -0.0857,-0.04655 -0.16957,-0.09605 -0.25,-0.15039 -0.0804,-0.05434 -0.15775,-0.114162 -0.23242,-0.175782 -0.0747,-0.06162 -0.14645,-0.124963 -0.21484,-0.193359 -0.0684,-0.0684 -0.1337,-0.140178 -0.19532,-0.214844 -0.0616,-0.07466 -0.11949,-0.153946 -0.17382,-0.234375 -0.0543,-0.08043 -0.1058,-0.162361 -0.15235,-0.248047 -0.0465,-0.08568 -0.0887,-0.175189 -0.12695,-0.265625 -0.0382,-0.09043 -0.0721,-0.182665 -0.10156,-0.277343 -0.0295,-0.09468 -0.0541,-0.190648 -0.0742,-0.289063 -0.0201,-0.09841 -0.0346,-0.199136 -0.0449,-0.300781 -0.0103,-0.101645 -0.0156,-0.204225 -0.0156,-0.308594 v -1.835937 c -17.73952,-3e-6 -89.32705,2e-6 -100.53125,0 v 1.841797 c 0,0.834941 -0.33759,1.591511 -0.88476,2.138671 -0.54717,0.547168 -1.30372,0.886718 -2.13867,0.886719 H 102.3927 c -0.83487,-10e-7 -1.5915,-0.339551 -2.13867,-0.886719 -0.547134,-0.54716 -0.884763,-1.30373 -0.884763,-2.138671 V 13.363281 H 29.17578 V 57.462889 H 12.375 l 0.15039,171.900381 23.249999,23.09961 h 48.599608 v 48.90039 h 14.988281 v -1.88086 c 0,-0.10437 0.0053,-0.20695 0.01563,-0.30859 0.01032,-0.10165 0.02674,-0.20237 0.04687,-0.30078 0.02014,-0.0984 0.04477,-0.19439 0.07422,-0.28907 0.02945,-0.0947 0.06331,-0.18886 0.101562,-0.27929 0.03825,-0.0904 0.08041,-0.17799 0.126953,-0.26367 0.04655,-0.0857 0.09801,-0.16957 0.152344,-0.25 0.05434,-0.0804 0.112229,-0.15776 0.173823,-0.23243 0.0616,-0.0747 0.12692,-0.14644 0.19532,-0.21484 0.0684,-0.0684 0.13822,-0.13369 0.21289,-0.19531 0.0747,-0.0616 0.15394,-0.11949 0.23437,-0.17383 0.0804,-0.0543 0.16236,-0.10384 0.24805,-0.15039 0.0857,-0.0465 0.17519,-0.0907 0.26562,-0.12891 0.0904,-0.0382 0.18267,-0.0721 0.27735,-0.10156 0.0947,-0.0294 0.19065,-0.0541 0.28906,-0.0742 0.0984,-0.0201 0.19914,-0.0346 0.30078,-0.0449 0.10165,-0.0103 0.20423,-0.0156 0.3086,-0.0156 h 35.52734 c 0.10437,0 0.20895,0.005 0.31054,0.0156 0.10165,0.0103 0.20042,0.0248 0.29883,0.0449 0.0984,0.0201 0.19634,0.0448 0.29102,0.0742 0.0947,0.0294 0.18691,0.0633 0.27734,0.10156 0.0904,0.0383 0.17799,0.0824 0.26367,0.12891 0.0857,0.0466 0.16958,0.096 0.25,0.15039 0.0804,0.0543 0.15776,0.11221 0.23243,0.17383 0.0747,0.0616 0.14644,0.12691 0.21484,0.19531 0.0684,0.0684 0.13369,0.14018 0.19531,0.21484 0.0616,0.0747 0.11949,0.152 0.17383,0.23243 0.0543,0.0804 0.1058,0.16431 0.15234,0.25 0.0465,0.0857 0.0887,0.17323 0.12696,0.26367 0.0383,0.0904 0.0721,0.18462 0.10156,0.27929 0.0294,0.0947 0.0541,0.19065 0.0742,0.28907 0.0201,0.0984 0.0346,0.19913 0.0449,0.30078 0.0103,0.10164 0.0156,0.20422 0.0156,0.30859 v 1.88086 h 100.5371 v -1.88086 c 0,-0.83495 0.3376,-1.5915 0.88477,-2.13867 0.54716,-0.54717 1.30372,-0.88477 2.13867,-0.88477 h 35.52734 c 0.83495,0 1.58955,0.3376 2.13672,0.88477 0.54717,0.54717 0.88672,1.30372 0.88672,2.13867 v 1.88086 h 430.86522 v -1.88086 c 0,-0.83495 0.33955,-1.5915 0.88672,-2.13867 0.54717,-0.54717 1.30177,-0.88477 2.13672,-0.88477 h 35.52929 c 0.83495,0 1.58955,0.3376 2.13672,0.88477 0.54717,0.54717 0.88672,1.30372 0.88672,2.13867 v 1.88086 h 100.53515 v -1.88086 c 0,-0.83495 0.3376,-1.5915 0.88477,-2.13867 0.54717,-0.54717 1.30372,-0.88477 2.13867,-0.88477 h 35.52734 c 0.83496,0 1.59155,0.3376 2.13867,0.88477 0.54717,0.54717 0.88477,1.30372 0.88477,2.13867 v 1.88086 h 14.77539 v -56.40039 h 72 V 13.363281 c -42.80877,9e-6 -60.34211,10e-7 -86.77539,0 v 1.835937 c 0,0.834951 -0.3376,1.591505 -0.88477,2.138672 -0.54716,0.547167 -1.30372,0.884767 -2.13867,0.884766 H 859.0488 c -0.83495,-2e-6 -1.5915,-0.337599 -2.13867,-0.884766 -0.54717,-0.547167 -0.88477,-1.303723 -0.88477,-2.138672 z"
       transform="rotate(90,130.53194,190.25354)" /><g
       id="g11734-9-85"
       style="display:inline;fill:none;fill-opacity:1;stroke:#0000ff;stroke-width:0.377953;stroke-dasharray:none;stroke-opacity:1"
       transform="rotate(90,137.51462,189.81159)"><path
         id="path12774-3-8"
         style="fill:none;fill-opacity:1;stroke:#0000ff;stroke-width:0.377953;stroke-linecap:round;stroke-linejoin:round;stroke-dasharray:none;stroke-opacity:1"
         d="m 42.594542,161.5173 v 11.74023 H 29.155089 v 53.29883 l 20.40039,20.4082 h 42.298827 v -20.40039 l 40.736324,0.002 v 11.02735 h 26.45703 v -11.02539 h 13.94829 l -0.004,-53.31055 H 159.00469 V 161.5173 h -26.45703 v 5.19922 H 69.051573 v -5.19922 z"
         sodipodi:nodetypes="cccccccccccccccccccc" /><path
         d="m 973.44723,217.90338 3.9527,-7e-5 v 24 h -18 l 7e-5,-15.3493 -39.2441,-0.003 -0.002,-53.29384 53.29215,0.006 z"
         id="path12782-8-9"
         style="fill:none;fill-opacity:1;stroke:#0000ff;stroke-width:0.377953;stroke-linecap:round;stroke-linejoin:round;stroke-dasharray:none;stroke-opacity:1"
         sodipodi:nodetypes="ccccccccc" /><path
         id="path12964-0-6"
         style="fill:none;fill-opacity:1;stroke:#0000ff;stroke-width:0.377953;stroke-linecap:round;stroke-linejoin:round;stroke-dasharray:none;stroke-opacity:1"
         d="m 244.44561,245.25764 v 53.29134 h -53.29134 v -53.29134 z"
         sodipodi:nodetypes="ccccc" /><path
         id="path12986-2-0"
         style="fill:none;fill-opacity:1;stroke:#0000ff;stroke-width:0.377953;stroke-linecap:round;stroke-linejoin:round;stroke-dasharray:none;stroke-opacity:1"
         d="m 600.59521,298.54898 v -64.15551 h 35.4567 v 4.23917 h 54.49606 v -4.23917 h 35.45669 v 64.15551 z"
         sodipodi:nodetypes="ccccccccc" /><path
         id="path12996-4-4"
         style="fill:none;fill-opacity:1;stroke:#0000ff;stroke-width:0.377953;stroke-linecap:round;stroke-linejoin:round;stroke-dasharray:none;stroke-opacity:1"
         d="m 496.44561,298.54898 h -62.29134 v -53.29134 h 62.29134 z"
         sodipodi:nodetypes="ccccc" /><path
         id="path13004-8-2"
         style="fill:none;fill-opacity:1;stroke:#0000ff;stroke-width:0.377953;stroke-linecap:round;stroke-linejoin:round;stroke-dasharray:none;stroke-opacity:1"
         d="m 208.44561,101.25765 v 53.29133 h -53.29133 v -53.29133 z"
         sodipodi:nodetypes="ccccc" /><path
         id="path13012-3-33"
         style="fill:none;fill-opacity:1;stroke:#0000ff;stroke-width:0.377953;stroke-linecap:round;stroke-linejoin:round;stroke-dasharray:none;stroke-opacity:1"
         d="m 623.15427,173.25765 h 53.29134 v 53.29133 h -53.29134 z"
         sodipodi:nodetypes="ccccc" /><path
         id="path13020-9-7"
         style="fill:none;fill-opacity:1;stroke:#0000ff;stroke-width:0.377953;stroke-linecap:round;stroke-linejoin:round;stroke-dasharray:none;stroke-opacity:1"
         d="M 694.44561,82.548985 H 641.15427 V 29.257648 h 53.29134 z"
         sodipodi:nodetypes="ccccc" /><path
         id="path13028-0-0"
         style="fill:none;fill-opacity:1;stroke:#0000ff;stroke-width:0.377953;stroke-linecap:round;stroke-linejoin:round;stroke-dasharray:none;stroke-opacity:1"
         d="M 820.4456,298.54898 H 767.15427 V 245.25764 H 820.4456 Z"
         sodipodi:nodetypes="ccccc" /><path
         id="path13036-5-0"
         style="fill:none;fill-opacity:1;stroke:#0000ff;stroke-width:0.377953;stroke-linecap:round;stroke-linejoin:round;stroke-dasharray:none;stroke-opacity:1"
         d="m 133.15428,24.257648 c 17.76378,0 35.52755,0 53.29133,0 v 53.291337 h -53.29133 z"
         class="UnoptimicedTransforms"
         sodipodi:nodetypes="ccccc"
         transform="translate(3.9999998,4.9999998)" /><path
         id="path13060-2-1"
         style="fill:none;fill-opacity:1;stroke:#0000ff;stroke-width:0.377953;stroke-linecap:round;stroke-linejoin:round;stroke-dasharray:none;stroke-opacity:1"
         d="m 515.15427,298.54898 v -53.29134 h 62.29134 v 53.29134 z"
         sodipodi:nodetypes="ccccc" /><path
         id="path13068-2-0"
         style="fill:none;fill-opacity:1;stroke:#0000ff;stroke-width:0.377953;stroke-linecap:round;stroke-linejoin:round;stroke-dasharray:none;stroke-opacity:1"
         d="m 263.15427,173.25765 h 53.29134 v 53.29133 h -53.29134 z"
         sodipodi:nodetypes="ccccc" /><circle
         cx="175.19522"
         cy="239.63559"
         r="7.5053062"
         id="circle13072-7-30"
         style="fill:none;fill-opacity:1;stroke:#0000ff;stroke-width:0.682301;stroke-linecap:round;stroke-linejoin:round;stroke-dasharray:none;stroke-opacity:1" /><path
         id="path13082-3-0"
         style="fill:none;fill-opacity:1;stroke:#0000ff;stroke-width:0.377953;stroke-linecap:round;stroke-linejoin:round;stroke-dasharray:none;stroke-opacity:1"
         d="m 479.15507,173.25753 v 53.29101 h 18.7168 c 0.0915,3.08618 0.19473,6.1751 0.28125,9.25977 -3.1e-4,4.1455 3.36036,7.50617 7.50586,7.50586 4.14474,-7.7e-4 7.50422,-3.36112 7.50391,-7.50586 l 0.16015,-9.25977 h 19.12305 v -53.29101 z"
         sodipodi:nodetypes="cccccccccc" /><path
         id="path13090-7-3"
         style="fill:none;fill-opacity:1;stroke:#0000ff;stroke-width:0.377953;stroke-linecap:round;stroke-linejoin:round;stroke-dasharray:none;stroke-opacity:1"
         d="m 335.15427,173.25765 h 53.29134 v 53.29133 h -53.29134 z"
         sodipodi:nodetypes="ccccc" /><path
         id="path13098-9-83"
         style="fill:none;fill-opacity:1;stroke:#0000ff;stroke-width:0.377953;stroke-linecap:round;stroke-linejoin:round;stroke-dasharray:none;stroke-opacity:1"
         d="m 407.15427,173.25765 h 53.29134 v 53.29133 h -53.29134 z"
         sodipodi:nodetypes="ccccc" /><path
         id="path13106-0-6"
         style="fill:none;fill-opacity:1;stroke:#0000ff;stroke-width:0.377953;stroke-linecap:round;stroke-linejoin:round;stroke-dasharray:none;stroke-opacity:1"
         d="m 424.44561,101.25765 v 53.29133 h -53.29134 v -53.29133 z"
         sodipodi:nodetypes="ccccc" /><circle
         cx="836.61255"
         cy="239.63559"
         r="7.5053062"
         id="circle13110-2-0"
         style="fill:none;fill-opacity:1;stroke:#0000ff;stroke-width:0.682301;stroke-linecap:round;stroke-linejoin:round;stroke-dasharray:none;stroke-opacity:1" /><path
         id="path13120-3-4"
         style="fill:none;fill-opacity:1;stroke:#0000ff;stroke-width:0.377953;stroke-linecap:round;stroke-linejoin:round;stroke-dasharray:none;stroke-opacity:1"
         d="m 695.15427,226.54898 v -53.29133 h 53.29133 v 53.29133 z"
         sodipodi:nodetypes="ccccc" /><path
         id="path13128-9-0"
         style="fill:none;fill-opacity:1;stroke:#0000ff;stroke-width:0.377953;stroke-linecap:round;stroke-linejoin:round;stroke-dasharray:none;stroke-opacity:1"
         d="m 551.15427,226.54898 v -53.29133 h 53.29134 v 53.29133 z"
         sodipodi:nodetypes="ccccc" /><path
         id="path13136-9-9"
         style="fill:none;fill-opacity:1;stroke:#0000ff;stroke-width:0.377953;stroke-linecap:round;stroke-linejoin:round;stroke-dasharray:none;stroke-opacity:1"
         d="m 353.15427,29.257648 h 53.29134 v 53.291337 h -53.29134 z"
         sodipodi:nodetypes="ccccc" /><path
         id="path13144-7-2"
         style="fill:none;fill-opacity:1;stroke:#0000ff;stroke-width:0.377953;stroke-linecap:round;stroke-linejoin:round;stroke-dasharray:none;stroke-opacity:1"
         d="M 262.44561,29.257648 V 82.548985 H 209.15427 V 29.257648 Z"
         sodipodi:nodetypes="ccccc" /><path
         id="path13166-0-49"
         style="fill:none;fill-opacity:1;stroke:#0000ff;stroke-width:0.377953;stroke-linecap:round;stroke-linejoin:round;stroke-dasharray:none;stroke-opacity:1"
         d="M 910.4456,29.257648 V 82.548985 H 857.15426 V 29.257648 Z"
         sodipodi:nodetypes="ccccc" /><path
         id="path13174-3-2"
         style="fill:none;fill-opacity:1;stroke:#0000ff;stroke-width:0.377953;stroke-linecap:round;stroke-linejoin:round;stroke-dasharray:none;stroke-opacity:1"
         d="M 856.4456,154.54898 H 803.15426 V 101.25765 H 856.4456 Z"
         sodipodi:nodetypes="ccccc" /><path
         d="m 56.154277,154.54898 v -53.29133 h 53.291333 v 53.29133 z"
         id="path13176-9-9"
         style="fill:none;fill-opacity:1;stroke:#0000ff;stroke-width:0.377953;stroke-linecap:round;stroke-linejoin:round;stroke-dasharray:none;stroke-opacity:1"
         sodipodi:nodetypes="ccccc" /><path
         id="path13190-8-1"
         style="fill:none;fill-opacity:1;stroke:#0000ff;stroke-width:0.377953;stroke-linecap:round;stroke-linejoin:round;stroke-dasharray:none;stroke-opacity:1"
         d="m 767.15427,226.54898 v -53.29133 h 53.29133 v 53.29133 z"
         sodipodi:nodetypes="ccccc" /><path
         id="path13198-6-0"
         style="fill:none;fill-opacity:1;stroke:#0000ff;stroke-width:0.377953;stroke-linecap:round;stroke-linejoin:round;stroke-dasharray:none;stroke-opacity:1"
         d="M 910.4456,298.54898 H 857.15426 V 245.25764 H 910.4456 Z"
         sodipodi:nodetypes="ccccc" /><path
         id="path13206-5-9"
         style="fill:none;fill-opacity:1;stroke:#0000ff;stroke-width:0.377953;stroke-linecap:round;stroke-linejoin:round;stroke-dasharray:none;stroke-opacity:1"
         d="M 955.4456,154.54898 H 902.15426 V 101.25765 H 955.4456 Z"
         sodipodi:nodetypes="ccccc" /><path
         id="path13214-7-3"
         style="fill:none;fill-opacity:1;stroke:#0000ff;stroke-width:0.377953;stroke-linecap:round;stroke-linejoin:round;stroke-dasharray:none;stroke-opacity:1"
         d="m 640.44561,154.54898 h -53.29134 v -53.29133 h 53.29134 z"
         sodipodi:nodetypes="ccccc" /><path
         id="path13222-6-0"
         style="fill:none;fill-opacity:1;stroke:#0000ff;stroke-width:0.377953;stroke-linecap:round;stroke-linejoin:round;stroke-dasharray:none;stroke-opacity:1"
         d="M 982.4456,82.548985 H 929.15426 V 29.257648 h 53.29134 z"
         sodipodi:nodetypes="ccccc" /><path
         id="path13230-2-0"
         style="fill:none;fill-opacity:1;stroke:#0000ff;stroke-width:0.377953;stroke-linecap:round;stroke-linejoin:round;stroke-dasharray:none;stroke-opacity:1"
         d="M 622.44561,29.257648 V 82.548985 H 569.15427 V 29.257648 Z"
         sodipodi:nodetypes="ccccc" /><path
         id="path13238-7-3"
         style="fill:none;fill-opacity:1;stroke:#0000ff;stroke-width:0.377953;stroke-linecap:round;stroke-linejoin:round;stroke-dasharray:none;stroke-opacity:1"
         d="m 101.15428,298.54898 v -53.29134 h 53.29133 v 53.29134 z"
         sodipodi:nodetypes="ccccc" /><path
         id="path13264-0-0"
         style="fill:none;fill-opacity:1;stroke:#0000ff;stroke-width:0.377953;stroke-linecap:round;stroke-linejoin:round;stroke-dasharray:none;stroke-opacity:1"
         d="m 375.54797,238.69514 v -4.30167 h 35.46614 v 64.15551 H 285.60467 v -64.15551 h 35.44724 v 4.30167 z"
         sodipodi:nodetypes="ccccccccc" /><path
         d="m 100.44545,29.257648 2e-5,53.291337 -53.345559,0.0021 3.5e-5,24.351985 -14.7,2.9e-4 V 73.903352 l 14.7,1.83e-4 -0.0039,-44.643903 z"
         id="path13270-3-1"
         style="fill:none;fill-opacity:1;stroke:#0000ff;stroke-width:0.377953;stroke-linecap:round;stroke-linejoin:round;stroke-dasharray:none;stroke-opacity:1"
         sodipodi:nodetypes="ccccccccc" /><path
         id="path13282-9-9"
         style="fill:none;fill-opacity:1;stroke:#0000ff;stroke-width:0.377953;stroke-linecap:round;stroke-linejoin:round;stroke-dasharray:none;stroke-opacity:1"
         d="m 352.44561,101.25765 v 53.29133 h -53.29134 v -53.29133 z"
         sodipodi:nodetypes="ccccc" /><path
         id="path13290-9-8"
         style="fill:none;fill-opacity:1;stroke:#0000ff;stroke-width:0.377953;stroke-linecap:round;stroke-linejoin:round;stroke-dasharray:none;stroke-opacity:1"
         d="M 334.44561,29.257648 V 82.548985 H 281.15427 V 29.257648 Z"
         sodipodi:nodetypes="ccccc" /><path
         id="path13298-9-6"
         style="fill:none;fill-opacity:1;stroke:#0000ff;stroke-width:0.377953;stroke-linecap:round;stroke-linejoin:round;stroke-dasharray:none;stroke-opacity:1"
         d="M 838.4456,29.257648 V 82.548985 H 785.15427 V 29.257648 Z"
         sodipodi:nodetypes="ccccc" /><circle
         cx="127.57317"
         cy="95.635597"
         r="7.5053062"
         id="circle13302-1-9"
         style="fill:none;fill-opacity:1;stroke:#0000ff;stroke-width:0.682301;stroke-linecap:round;stroke-linejoin:round;stroke-dasharray:none;stroke-opacity:1" /><path
         id="path13312-7-0"
         style="fill:none;fill-opacity:1;stroke:#0000ff;stroke-width:0.377953;stroke-linecap:round;stroke-linejoin:round;stroke-dasharray:none;stroke-opacity:1"
         d="m 244.44561,226.54898 h -53.29134 v -53.29133 h 53.29134 z"
         sodipodi:nodetypes="ccccc" /><circle
         cx="884.23462"
         cy="95.635597"
         r="7.5053062"
         id="circle13316-2-1"
         style="fill:none;fill-opacity:1;stroke:#0000ff;stroke-width:0.682301;stroke-linecap:round;stroke-linejoin:round;stroke-dasharray:none;stroke-opacity:1" /><path
         id="path13326-3-6"
         style="fill:none;fill-opacity:1;stroke:#0000ff;stroke-width:0.377953;stroke-linecap:round;stroke-linejoin:round;stroke-dasharray:none;stroke-opacity:1"
         d="m 712.4456,101.25765 v 53.29133 h -53.29133 v -53.29133 z"
         sodipodi:nodetypes="ccccc" /><path
         id="path13334-6-4"
         style="fill:none;fill-opacity:1;stroke:#0000ff;stroke-width:0.377953;stroke-linecap:round;stroke-linejoin:round;stroke-dasharray:none;stroke-opacity:1"
         d="m 731.15427,154.54898 v -53.29133 h 53.29133 v 53.29133 z"
         sodipodi:nodetypes="ccccc" /><path
         id="path13342-5-4"
         style="fill:none;fill-opacity:1;stroke:#0000ff;stroke-width:0.377953;stroke-linecap:round;stroke-linejoin:round;stroke-dasharray:none;stroke-opacity:1"
         d="M 766.4456,29.257648 V 82.548985 H 713.15427 V 29.257648 Z"
         sodipodi:nodetypes="ccccc" /><path
         id="path13350-5-8"
         style="fill:none;fill-opacity:1;stroke:#0000ff;stroke-width:0.377953;stroke-linecap:round;stroke-linejoin:round;stroke-dasharray:none;stroke-opacity:1"
         d="m 280.44561,154.54898 h -53.29134 v -53.29133 h 53.29134 z"
         sodipodi:nodetypes="ccccc" /><path
         id="path13358-8-6"
         style="fill:none;fill-opacity:1;stroke:#0000ff;stroke-width:0.377953;stroke-linecap:round;stroke-linejoin:round;stroke-dasharray:none;stroke-opacity:1"
         d="m 568.44561,101.25765 v 53.29133 h -53.29134 v -53.29133 z"
         sodipodi:nodetypes="ccccc" /><path
         id="path13214-8-7-1-1"
         style="display:inline;fill:none;fill-opacity:1;stroke:#0000ff;stroke-width:0.389056;stroke-linecap:round;stroke-linejoin:round;stroke-dasharray:none;stroke-opacity:1"
         d="m 483.56475,86.833339 -58.40215,0.0042 -0.0583,-62.328523 58.47761,-0.0028 z"
         sodipodi:nodetypes="ccccc" /><path
         id="path13214-8-7-2-4-40"
         style="display:inline;fill:none;fill-opacity:1;stroke:#0000ff;stroke-width:0.389056;stroke-linecap:round;stroke-linejoin:round;stroke-dasharray:none;stroke-opacity:1"
         d="m 550.43708,86.83008 -58.40215,0.0042 -0.0583,-62.328523 58.47761,-0.0028 z"
         sodipodi:nodetypes="ccccc" /><path
         id="path13402-7-8"
         style="fill:none;fill-opacity:1;stroke:#0000ff;stroke-width:0.377953;stroke-linecap:round;stroke-linejoin:round;stroke-dasharray:none;stroke-opacity:1"
         d="m 892.4456,173.25765 v 53.29133 h -53.29134 v -53.29133 z"
         sodipodi:nodetypes="ccccc" /><path
         id="path13410-1-1"
         style="fill:none;fill-opacity:1;stroke:#0000ff;stroke-width:0.377953;stroke-linecap:round;stroke-linejoin:round;stroke-dasharray:none;stroke-opacity:1"
         d="m 496.44561,101.25765 v 53.29133 h -53.29134 v -53.29133 z"
         sodipodi:nodetypes="ccccc" /></g></g></g></svg>
