<?xml version="1.0" standalone="no"?>
 <!DOCTYPE svg PUBLIC "-//W3C//DTD SVG 1.1//EN" 
 "http://www.w3.org/Graphics/SVG/1.1/DTD/svg11.dtd"> 
<svg
  xmlns:svg="http://www.w3.org/2000/svg"
  xmlns="http://www.w3.org/2000/svg"
  xmlns:xlink="http://www.w3.org/1999/xlink"
  version="1.1"
  width="26.210260cm" height="7.967980cm" viewBox="0 0 262102600 79679800">
<title>SVG Picture created as rf40-Edge_Cuts.svg date 2022/10/09 23:29:12 </title>
  <desc>Picture generated by PCBNEW </desc>
<g style="fill:#000000; fill-opacity:1.000000;stroke:#000000; stroke-opacity:1.000000;
stroke-linecap:round; stroke-linejoin:round;"
 transform="translate(0 0) scale(1 1)">
</g>
<g style="fill:#000000; fill-opacity:0.0; 
stroke:#000000; stroke-width:0.000000; stroke-opacity:1; 
stroke-linecap:round; stroke-linejoin:round;">
</g>
<g style="fill:#D0D2CD; fill-opacity:0.0; 
stroke:#D0D2CD; stroke-width:0.000000; stroke-opacity:1; 
stroke-linecap:round; stroke-linejoin:round;">
</g>
<g style="fill:#D0D2CD; fill-opacity:0.0; 
stroke:#D0D2CD; stroke-width:100000.000000; stroke-opacity:1; 
stroke-linecap:round; stroke-linejoin:round;">
<path d="M75000 1050000
L75000 78650000
" />
<path d="M262075000 1050000
L262075000 78650000
" />
<path d="M1075000.000000 50000.000000 A1000000.000000 1000000.000000 0.0 0 0 75000.000000 1050000.000000" />
<path d="M1075000 50000
L261075000 50000
" />
<path d="M75000.000000 78650000.000000 A1000000.000000 1000000.000000 0.0 0 0 1075000.000000 79650000.000000" />
<path d="M261075000.000000 79650000.000000 A1000000.000000 1000000.000000 0.0 0 0 262075000.000000 78650000.000000" />
<path d="M1075000 79650000
L261075000 79650000
" />
<path d="M262075000.000000 1050000.000000 A1000000.000000 1000000.000000 0.0 0 0 261075000.000000 50000.000000" />
</g>
<g style="fill:#D0D2CD; fill-opacity:0.0; 
stroke:#D0D2CD; stroke-width:150000.000000; stroke-opacity:1; 
stroke-linecap:round; stroke-linejoin:round;">
<path d="M47797500 75487500
L47797500 61387500
" />
<path d="M61897500 61387500
L61897500 75487500
" />
<path d="M61897500 75487500
L47797500 75487500
" />
<path d="M47797500 61387500
L61897500 61387500
" />
<path d="M189310000 75487500
L156128750 75487500
" />
</g>
<g style="fill:#D0D2CD; fill-opacity:0.0; 
stroke:#D0D2CD; stroke-width:120000.000000; stroke-opacity:1; 
stroke-linecap:round; stroke-linejoin:round;">
<path d="M165510000 59637500
L156128750 59637500
" />
<path d="M179928750 61387500
L179928750 59637500
" />
<path d="M189310000 59637500
L189310000 75487500
" />
</g>
<g style="fill:#D0D2CD; fill-opacity:0.0; 
stroke:#D0D2CD; stroke-width:150000.000000; stroke-opacity:1; 
stroke-linecap:round; stroke-linejoin:round;">
<path d="M165510000 61387500
L179928750 61387500
" />
</g>
<g style="fill:#D0D2CD; fill-opacity:0.0; 
stroke:#D0D2CD; stroke-width:120000.000000; stroke-opacity:1; 
stroke-linecap:round; stroke-linejoin:round;">
<path d="M179928750 59637500
L189310000 59637500
" />
<path d="M165510000 61387500
L165510000 59637500
" />
<path d="M156128750 59637500
L156128750 75487500
" />
</g>
<g style="fill:#D0D2CD; fill-opacity:0.0; 
stroke:#D0D2CD; stroke-width:150000.000000; stroke-opacity:1; 
stroke-linecap:round; stroke-linejoin:round;">
<path d="M128572500 61387500
L128572500 75487500
" />
<path d="M128572500 75487500
L112091250 75487500
" />
<path d="M112091250 75487500
L112091250 61387500
" />
<path d="M112091250 61387500
L128572500 61387500
" />
<path d="M52372500 23287500
L52372500 37387500
" />
<path d="M38272500 37387500
L38272500 23287500
" />
<path d="M52372500 37387500
L38272500 37387500
" />
<path d="M38272500 23287500
L52372500 23287500
" />
<path d="M176197500 42337500
L176197500 56437500
" />
<path d="M176197500 56437500
L162097500 56437500
" />
<path d="M162097500 42337500
L176197500 42337500
" />
<path d="M162097500 56437500
L162097500 42337500
" />
<path d="M166860000 18337500
L166860000 4237500
" />
<path d="M180960000 4237500
L180960000 18337500
" />
<path d="M180960000 18337500
L166860000 18337500
" />
<path d="M166860000 4237500
L180960000 4237500
" />
<path d="M200197500 61387500
L214297500 61387500
" />
<path d="M214297500 75487500
L200197500 75487500
" />
<path d="M200197500 75487500
L200197500 61387500
" />
<path d="M214297500 61387500
L214297500 75487500
" />
<path d="M47610000 4237500
L47610000 18337500
" />
<path d="M33510000 4237500
L47610000 4237500
" />
<path d="M47610000 18337500
L33510000 18337500
" />
<path d="M33510000 18337500
L33510000 4237500
" />
<path d="M142860000 4237500
L142860000 18337500
" />
<path d="M128760000 4237500
L142860000 4237500
" />
<path d="M128760000 18337500
L128760000 4237500
" />
<path d="M142860000 18337500
L128760000 18337500
" />
<path d="M123810000 4237500
L123810000 18337500
" />
<path d="M123810000 18337500
L109710000 18337500
" />
<path d="M109710000 4237500
L123810000 4237500
" />
<path d="M109710000 18337500
L109710000 4237500
" />
<path d="M133522500 75487500
L133522500 61387500
" />
<path d="M150003750 61387500
L150003750 75487500
" />
<path d="M133522500 61387500
L150003750 61387500
" />
<path d="M150003750 75487500
L133522500 75487500
" />
<path d="M80947500 56437500
L66847500 56437500
" />
<path d="M66847500 42337500
L80947500 42337500
" />
<path d="M80947500 42337500
L80947500 56437500
" />
<path d="M66847500 56437500
L66847500 42337500
" />
</g>
<g style="fill:#D0D2CD; fill-opacity:0.0; 
stroke:#D0D2CD; stroke-width:10000.000000; stroke-opacity:1; 
stroke-linecap:round; stroke-linejoin:round;">
<circle cx="43575000.000000" cy="59900000.000000" r="1100000.000000" /> 
</g>
<g style="fill:#D0D2CD; fill-opacity:0.0; 
stroke:#D0D2CD; stroke-width:150000.000000; stroke-opacity:1; 
stroke-linecap:round; stroke-linejoin:round;">
<path d="M123997500 56437500
L123997500 42337500
" />
<path d="M138097500 42337500
L138097500 56437500
" />
<path d="M138097500 56437500
L123997500 56437500
" />
<path d="M123997500 42337500
L138097500 42337500
" />
<path d="M99997500 42337500
L99997500 56437500
" />
<path d="M99997500 56437500
L85897500 56437500
" />
<path d="M85897500 42337500
L99997500 42337500
" />
<path d="M85897500 56437500
L85897500 42337500
" />
<path d="M119047500 42337500
L119047500 56437500
" />
<path d="M119047500 56437500
L104947500 56437500
" />
<path d="M104947500 42337500
L119047500 42337500
" />
<path d="M104947500 56437500
L104947500 42337500
" />
<path d="M95422500 37387500
L95422500 23287500
" />
<path d="M109522500 23287500
L109522500 37387500
" />
<path d="M95422500 23287500
L109522500 23287500
" />
<path d="M109522500 37387500
L95422500 37387500
" />
</g>
<g style="fill:#D0D2CD; fill-opacity:0.0; 
stroke:#D0D2CD; stroke-width:10000.000000; stroke-opacity:1; 
stroke-linecap:round; stroke-linejoin:round;">
<circle cx="218575000.000000" cy="59900000.000000" r="1100000.000000" /> 
</g>
<g style="fill:#D0D2CD; fill-opacity:0.0; 
stroke:#D0D2CD; stroke-width:150000.000000; stroke-opacity:1; 
stroke-linecap:round; stroke-linejoin:round;">
<path d="M181147500 42337500
L195247500 42337500
" />
<path d="M195247500 42337500
L195247500 56437500
" />
<path d="M181147500 56437500
L181147500 42337500
" />
<path d="M195247500 56437500
L181147500 56437500
" />
<path d="M143047500 56437500
L143047500 42337500
" />
<path d="M157147500 42337500
L157147500 56437500
" />
<path d="M143047500 42337500
L157147500 42337500
" />
<path d="M157147500 56437500
L143047500 56437500
" />
<path d="M90660000 4237500
L104760000 4237500
" />
<path d="M104760000 18337500
L90660000 18337500
" />
<path d="M104760000 4237500
L104760000 18337500
" />
<path d="M90660000 18337500
L90660000 4237500
" />
<path d="M66660000 4237500
L66660000 18337500
" />
<path d="M52560000 18337500
L52560000 4237500
" />
<path d="M66660000 18337500
L52560000 18337500
" />
<path d="M52560000 4237500
L66660000 4237500
" />
</g>
<g style="fill:#D0D2CD; fill-opacity:0.0; 
stroke:#D0D2CD; stroke-width:10000.000000; stroke-opacity:1; 
stroke-linecap:round; stroke-linejoin:round;">
<circle cx="131010000.000000" cy="58887500.000000" r="1100000.000000" /> 
</g>
<g style="fill:#D0D2CD; fill-opacity:0.0; 
stroke:#D0D2CD; stroke-width:150000.000000; stroke-opacity:1; 
stroke-linecap:round; stroke-linejoin:round;">
<path d="M240678750 42337500
L254778750 42337500
" />
<path d="M254778750 56437500
L240678750 56437500
" />
<path d="M240678750 56437500
L240678750 42337500
" />
<path d="M254778750 42337500
L254778750 56437500
" />
<path d="M238110000 4237500
L238110000 18337500
" />
<path d="M224010000 18337500
L224010000 4237500
" />
<path d="M238110000 18337500
L224010000 18337500
" />
<path d="M224010000 4237500
L238110000 4237500
" />
<path d="M223822500 37387500
L209722500 37387500
" />
<path d="M209722500 23287500
L223822500 23287500
" />
<path d="M209722500 37387500
L209722500 23287500
" />
<path d="M223822500 23287500
L223822500 37387500
" />
<path d="M26178750 37387500
L12078750 37387500
" />
<path d="M12078750 23287500
L26178750 23287500
" />
<path d="M12078750 37387500
L12078750 23287500
" />
<path d="M26178750 23287500
L26178750 37387500
" />
<path d="M200197500 56437500
L200197500 42337500
" />
<path d="M200197500 42337500
L214297500 42337500
" />
<path d="M214297500 42337500
L214297500 56437500
" />
<path d="M214297500 56437500
L200197500 56437500
" />
<path d="M238110000 75487500
L224010000 75487500
" />
<path d="M224010000 75487500
L224010000 61387500
" />
<path d="M224010000 61387500
L238110000 61387500
" />
<path d="M238110000 61387500
L238110000 75487500
" />
<path d="M250016250 37387500
L235916250 37387500
" />
<path d="M235916250 37387500
L235916250 23287500
" />
<path d="M235916250 23287500
L250016250 23287500
" />
<path d="M250016250 23287500
L250016250 37387500
" />
<path d="M152572500 37387500
L152572500 23287500
" />
<path d="M166672500 23287500
L166672500 37387500
" />
<path d="M166672500 37387500
L152572500 37387500
" />
<path d="M152572500 23287500
L166672500 23287500
" />
<path d="M243060000 4237500
L257160000 4237500
" />
<path d="M257160000 18337500
L243060000 18337500
" />
<path d="M243060000 18337500
L243060000 4237500
" />
<path d="M257160000 4237500
L257160000 18337500
" />
<path d="M161910000 4237500
L161910000 18337500
" />
<path d="M147810000 4237500
L161910000 4237500
" />
<path d="M161910000 18337500
L147810000 18337500
" />
<path d="M147810000 18337500
L147810000 4237500
" />
<path d="M38085000 61387500
L38085000 75487500
" />
<path d="M23985000 61387500
L38085000 61387500
" />
<path d="M23985000 75487500
L23985000 61387500
" />
<path d="M38085000 75487500
L23985000 75487500
" />
</g>
<g style="fill:#D0D2CD; fill-opacity:0.0; 
stroke:#D0D2CD; stroke-width:120000.000000; stroke-opacity:1; 
stroke-linecap:round; stroke-linejoin:round;">
<path d="M82166250 59637500
L72787500 59637500
" />
<path d="M105968750 59637500
L105968750 75487500
" />
</g>
<g style="fill:#D0D2CD; fill-opacity:0.0; 
stroke:#D0D2CD; stroke-width:150000.000000; stroke-opacity:1; 
stroke-linecap:round; stroke-linejoin:round;">
<path d="M96585000 61387500
L82166250 61387500
" />
</g>
<g style="fill:#D0D2CD; fill-opacity:0.0; 
stroke:#D0D2CD; stroke-width:120000.000000; stroke-opacity:1; 
stroke-linecap:round; stroke-linejoin:round;">
<path d="M72787500 59637500
L72787500 75487500
" />
<path d="M96585000 61387500
L96585000 59637500
" />
</g>
<g style="fill:#D0D2CD; fill-opacity:0.0; 
stroke:#D0D2CD; stroke-width:150000.000000; stroke-opacity:1; 
stroke-linecap:round; stroke-linejoin:round;">
<path d="M72787500 75487500
L105968750 75487500
" />
</g>
<g style="fill:#D0D2CD; fill-opacity:0.0; 
stroke:#D0D2CD; stroke-width:120000.000000; stroke-opacity:1; 
stroke-linecap:round; stroke-linejoin:round;">
<path d="M96585000 59637500
L105968750 59637500
" />
<path d="M82166250 61387500
L82166250 59637500
" />
</g>
<g style="fill:#D0D2CD; fill-opacity:0.0; 
stroke:#D0D2CD; stroke-width:150000.000000; stroke-opacity:1; 
stroke-linecap:round; stroke-linejoin:round;">
<path d="M23797500 4237500
L23797500 18337500
" />
<path d="M9697500 4237500
L23797500 4237500
" />
<path d="M9697500 18337500
L9697500 4237500
" />
<path d="M23797500 18337500
L9697500 18337500
" />
<path d="M76372500 23287500
L90472500 23287500
" />
<path d="M90472500 37387500
L76372500 37387500
" />
<path d="M90472500 23287500
L90472500 37387500
" />
<path d="M76372500 37387500
L76372500 23287500
" />
<path d="M85710000 18337500
L71610000 18337500
" />
<path d="M71610000 18337500
L71610000 4237500
" />
<path d="M85710000 4237500
L85710000 18337500
" />
<path d="M71610000 4237500
L85710000 4237500
" />
<path d="M204960000 18337500
L204960000 4237500
" />
<path d="M219060000 4237500
L219060000 18337500
" />
<path d="M204960000 4237500
L219060000 4237500
" />
<path d="M219060000 18337500
L204960000 18337500
" />
</g>
<g style="fill:#D0D2CD; fill-opacity:0.0; 
stroke:#D0D2CD; stroke-width:10000.000000; stroke-opacity:1; 
stroke-linecap:round; stroke-linejoin:round;">
<circle cx="30975000.000000" cy="21800000.000000" r="1100000.000000" /> 
</g>
<g style="fill:#D0D2CD; fill-opacity:0.0; 
stroke:#D0D2CD; stroke-width:150000.000000; stroke-opacity:1; 
stroke-linecap:round; stroke-linejoin:round;">
<path d="M47797500 42337500
L61897500 42337500
" />
<path d="M61897500 56437500
L47797500 56437500
" />
<path d="M47797500 56437500
L47797500 42337500
" />
<path d="M61897500 42337500
L61897500 56437500
" />
</g>
<g style="fill:#D0D2CD; fill-opacity:0.0; 
stroke:#D0D2CD; stroke-width:10000.000000; stroke-opacity:1; 
stroke-linecap:round; stroke-linejoin:round;">
<circle cx="231175000.000000" cy="21800000.000000" r="1100000.000000" /> 
</g>
<g style="fill:#D0D2CD; fill-opacity:0.0; 
stroke:#D0D2CD; stroke-width:150000.000000; stroke-opacity:1; 
stroke-linecap:round; stroke-linejoin:round;">
<path d="M171622500 37387500
L171622500 23287500
" />
<path d="M185722500 37387500
L171622500 37387500
" />
<path d="M185722500 23287500
L185722500 37387500
" />
<path d="M171622500 23287500
L185722500 23287500
" />
<path d="M204772500 23287500
L204772500 37387500
" />
<path d="M190672500 23287500
L204772500 23287500
" />
<path d="M190672500 37387500
L190672500 23287500
" />
<path d="M204772500 37387500
L190672500 37387500
" />
<path d="M200010000 4237500
L200010000 18337500
" />
<path d="M185910000 18337500
L185910000 4237500
" />
<path d="M200010000 18337500
L185910000 18337500
" />
<path d="M185910000 4237500
L200010000 4237500
" />
<path d="M71422500 23287500
L71422500 37387500
" />
<path d="M71422500 37387500
L57322500 37387500
" />
<path d="M57322500 37387500
L57322500 23287500
" />
<path d="M57322500 23287500
L71422500 23287500
" />
<path d="M147622500 23287500
L147622500 37387500
" />
<path d="M133522500 37387500
L133522500 23287500
" />
<path d="M147622500 37387500
L133522500 37387500
" />
<path d="M133522500 23287500
L147622500 23287500
" />
</g>
<g style="fill:#D0D2CD; fill-opacity:0.0; 
stroke:#D0D2CD; stroke-width:120000.000000; stroke-opacity:1; 
stroke-linecap:round; stroke-linejoin:round;">
<path d="M15491250 40587500
L8491250 40587500
" />
</g>
<g style="fill:#D0D2CD; fill-opacity:0.0; 
stroke:#D0D2CD; stroke-width:150000.000000; stroke-opacity:1; 
stroke-linecap:round; stroke-linejoin:round;">
<path d="M40466250 42337500
L40466250 56437500
" />
<path d="M39291250 42337500
L40466250 42337500
" />
<path d="M40466250 56437500
L4935000 56437500
" />
</g>
<g style="fill:#D0D2CD; fill-opacity:0.0; 
stroke:#D0D2CD; stroke-width:120000.000000; stroke-opacity:1; 
stroke-linecap:round; stroke-linejoin:round;">
<path d="M39291250 40587500
L39291250 42337500
" />
</g>
<g style="fill:#D0D2CD; fill-opacity:0.0; 
stroke:#D0D2CD; stroke-width:150000.000000; stroke-opacity:1; 
stroke-linecap:round; stroke-linejoin:round;">
<path d="M4935000 56437500
L4935000 42337500
" />
</g>
<g style="fill:#D0D2CD; fill-opacity:0.0; 
stroke:#D0D2CD; stroke-width:120000.000000; stroke-opacity:1; 
stroke-linecap:round; stroke-linejoin:round;">
<path d="M32291250 42337500
L32291250 40587500
" />
<path d="M8491250 40587500
L8491250 42337500
" />
<path d="M15491250 42337500
L15491250 40587500
" />
<path d="M32291250 40587500
L39291250 40587500
" />
</g>
<g style="fill:#D0D2CD; fill-opacity:0.0; 
stroke:#D0D2CD; stroke-width:150000.000000; stroke-opacity:1; 
stroke-linecap:round; stroke-linejoin:round;">
<path d="M4935000 42337500
L8491250 42337500
" />
<path d="M15491250 42337500
L32291250 42337500
" />
<path d="M219247500 42337500
L233347500 42337500
" />
<path d="M233347500 56437500
L219247500 56437500
" />
<path d="M219247500 56437500
L219247500 42337500
" />
<path d="M233347500 42337500
L233347500 56437500
" />
<path d="M128572500 23287500
L128572500 37387500
" />
<path d="M114472500 37387500
L114472500 23287500
" />
<path d="M114472500 23287500
L128572500 23287500
" />
<path d="M128572500 37387500
L114472500 37387500
" />
<g >
</g>
<g >
</g>
<g >
</g>
<g >
</g>
<g >
</g>
<g >
</g>
<g >
</g>
<g >
</g>
<g >
</g>
<g >
</g>
<g >
</g>
<g >
</g>
<g >
</g>
<g >
</g>
<g >
</g>
<g >
</g>
<g >
</g>
<g >
</g>
<g >
</g>
<g >
</g>
<g >
</g>
<g >
</g>
<g >
</g>
<g >
</g>
<g >
</g>
<g >
</g>
<g >
</g>
<g >
</g>
<g >
</g>
<g >
</g>
<g >
</g>
<g >
</g>
<g >
</g>
<g >
</g>
<g >
</g>
<g >
</g>
<g >
</g>
<g >
</g>
<g >
</g>
<g >
</g>
<g >
</g>
<g >
</g>
<g >
</g>
<g >
</g>
<g >
</g>
<g >
</g>
<g >
</g>
<g >
</g>
<g >
</g>
<g >
</g>
<g >
</g>
<g >
</g>
<g >
</g>
</g> 
</svg>
